<svg width="24" height="16" viewBox="0 0 24 16" fill="none" xmlns="http://www.w3.org/2000/svg">
<path d="M9.07554 16C15.7231 16 19.3585 10.4907 19.3585 5.71321C19.3585 5.55675 19.3553 5.401 19.3482 5.2459C20.0556 4.73388 20.6661 4.09992 21.151 3.37374C20.5034 3.66174 19.8066 3.85558 19.0756 3.94298C19.8217 3.4954 20.3946 2.78731 20.6648 1.94328C19.9554 2.36429 19.1793 2.66109 18.3699 2.82086C17.7104 2.11811 16.7715 1.67859 15.7318 1.67859C13.736 1.67859 12.1175 3.29769 12.1175 5.29349C12.1175 5.57723 12.1493 5.85313 12.2113 6.11786C9.20758 5.96666 6.54409 4.52801 4.76154 2.34045C4.44049 2.8922 4.27162 3.51927 4.27218 4.15762C4.27218 5.41196 4.9102 6.51925 5.88047 7.16708C5.30655 7.14955 4.74522 6.99447 4.24368 6.71488C4.24315 6.73006 4.24315 6.74485 4.24315 6.76107C4.24315 8.51197 5.48889 9.97386 7.14258 10.3051C6.832 10.3897 6.51151 10.4325 6.1896 10.4323C5.95713 10.4323 5.73057 10.4094 5.51037 10.3672C5.97048 11.8037 7.30466 12.849 8.8865 12.8782C7.64952 13.8481 6.09132 14.4258 4.39778 14.4258C4.10969 14.426 3.82183 14.4093 3.53571 14.3757C5.13519 15.4013 7.03442 15.9997 9.07572 15.9997" fill="#8765AF"/>
</svg>
