<svg width="16" height="16" viewBox="0 0 16 16" fill="none" xmlns="http://www.w3.org/2000/svg">
<path d="M5.33376 8C5.33376 6.5273 6.5273 5.33312 8 5.33312C9.4727 5.33312 10.6669 6.5273 10.6669 8C10.6669 9.4727 9.4727 10.6669 8 10.6669C6.5273 10.6669 5.33376 9.4727 5.33376 8ZM3.89208 8C3.89208 10.2688 5.73118 12.1079 8 12.1079C10.2688 12.1079 12.1079 10.2688 12.1079 8C12.1079 5.73118 10.2688 3.89208 8 3.89208C5.73118 3.89208 3.89208 5.73118 3.89208 8ZM11.3105 3.72924C11.3105 4.25913 11.7402 4.6895 12.2708 4.6895C12.8006 4.6895 13.231 4.25913 13.231 3.72924C13.231 3.19935 12.8013 2.76963 12.2708 2.76963C11.7402 2.76963 11.3105 3.19935 11.3105 3.72924ZM4.76769 14.5118C3.98772 14.4763 3.56381 14.3464 3.28207 14.2365C2.90856 14.0911 2.64233 13.9179 2.36187 13.6381C2.08207 13.3583 1.90824 13.0921 1.76349 12.7186C1.65363 12.4368 1.52375 12.0129 1.48821 11.233C1.44943 10.3897 1.44168 10.1363 1.44168 8C1.44168 5.86365 1.45008 5.61099 1.48821 4.76704C1.52375 3.98708 1.65428 3.56381 1.76349 3.28142C1.90889 2.90792 2.08207 2.64168 2.36187 2.36123C2.64168 2.08142 2.90792 1.90759 3.28207 1.76284C3.56381 1.65299 3.98772 1.5231 4.76769 1.48756C5.61099 1.44879 5.8643 1.44103 8 1.44103C10.1363 1.44103 10.389 1.44943 11.233 1.48756C12.0129 1.5231 12.4362 1.65363 12.7186 1.76284C13.0921 1.90759 13.3583 2.08142 13.6388 2.36123C13.9186 2.64103 14.0918 2.90792 14.2372 3.28142C14.347 3.56317 14.4769 3.98708 14.5124 4.76704C14.5512 5.61099 14.559 5.86365 14.559 8C14.559 10.1357 14.5512 10.389 14.5124 11.233C14.4769 12.0129 14.3464 12.4368 14.2372 12.7186C14.0918 13.0921 13.9186 13.3583 13.6388 13.6381C13.359 13.9179 13.0921 14.0911 12.7186 14.2365C12.4368 14.3464 12.0129 14.4763 11.233 14.5118C10.3897 14.5506 10.1363 14.5583 8 14.5583C5.8643 14.5583 5.61099 14.5506 4.76769 14.5118ZM4.70178 0.0484653C3.85008 0.0872375 3.2685 0.222294 2.75994 0.420032C2.23393 0.624233 1.78805 0.898223 1.34281 1.34281C0.898223 1.7874 0.624233 2.23328 0.420032 2.75994C0.222294 3.2685 0.0872375 3.85008 0.0484653 4.70178C0.00904685 5.55477 0 5.82746 0 8C0 10.1725 0.00904685 10.4452 0.0484653 11.2982C0.0872375 12.1499 0.222294 12.7315 0.420032 13.2401C0.624233 13.7661 0.897577 14.2126 1.34281 14.6572C1.7874 15.1018 2.23328 15.3751 2.75994 15.58C3.26914 15.7777 3.85008 15.9128 4.70178 15.9515C5.55541 15.9903 5.82746 16 8 16C10.1732 16 10.4452 15.991 11.2982 15.9515C12.1499 15.9128 12.7315 15.7777 13.2401 15.58C13.7661 15.3751 14.212 15.1018 14.6572 14.6572C15.1018 14.2126 15.3751 13.7661 15.58 13.2401C15.7777 12.7315 15.9134 12.1499 15.9515 11.2982C15.9903 10.4446 15.9994 10.1725 15.9994 8C15.9994 5.82746 15.9903 5.55477 15.9515 4.70178C15.9128 3.85008 15.7777 3.2685 15.58 2.75994C15.3751 2.23393 15.1018 1.78805 14.6572 1.34281C14.2126 0.898223 13.7661 0.624233 13.2407 0.420032C12.7315 0.222294 12.1499 0.0865913 11.2989 0.0484653C10.4459 0.00969305 10.1732 0 8.00065 0C5.82746 0 5.55541 0.00904685 4.70178 0.0484653Z" fill="#8765AF"/>
</svg>
