<svg width="32" height="32" viewBox="0 0 32 32" fill="none" xmlns="http://www.w3.org/2000/svg">
<path d="M15.8094 0.000278246C14.4898 0.0062575 13.2298 0.117586 12.1212 0.311769C8.85506 0.882646 8.26205 2.07707 8.26205 4.28029V7.18991H15.9804V8.15969H5.36521C3.12213 8.15969 1.1577 9.49335 0.543383 12.0303C-0.165354 14.9382 -0.196732 16.7527 0.543383 19.7891C1.09206 22.0492 2.40245 23.6596 4.64553 23.6596H7.29941V20.1717C7.29941 17.6519 9.50363 15.4293 12.1212 15.4293H19.8307C21.9768 15.4293 23.6899 13.6817 23.6899 11.5499V4.28C23.6899 2.21118 21.9252 0.656858 19.8307 0.311484C18.5045 0.093384 17.129 -0.00598574 15.8094 0.000278246V0.000278246ZM11.6353 2.34016C12.4327 2.34016 13.0836 2.99475 13.0836 3.79938C13.0836 4.60117 12.4324 5.24978 11.6353 5.24978C10.8353 5.24978 10.187 4.60146 10.187 3.79938C10.187 2.99475 10.8353 2.34016 11.6353 2.34016Z" fill="url(#paint0_linear_12:13)"/>
<path d="M24.6525 8.15939V11.5493C24.6525 14.1777 22.3996 16.3897 19.8307 16.3897H12.1212C10.0094 16.3897 8.26202 18.1772 8.26202 20.2691V27.5385C8.26202 29.6076 10.0808 30.8245 12.1212 31.4179C14.5644 32.1285 16.9073 32.2569 19.8307 31.4179C21.7738 30.8615 23.6899 29.7414 23.6899 27.5385V24.6291H15.9804V23.6593H27.549C29.7924 23.6593 30.6281 22.1116 31.4082 19.7888C32.2143 17.3976 32.18 15.0976 31.4082 12.03C30.8538 9.82134 29.795 8.15939 27.549 8.15939H24.6525V8.15939ZM20.3163 26.5687C21.1163 26.5687 21.7646 27.217 21.7646 28.0191C21.7646 28.8237 21.1163 29.4783 20.3163 29.4783C19.5189 29.4783 18.868 28.8237 18.868 28.0191C18.868 27.2173 19.5192 26.5687 20.3163 26.5687Z" fill="url(#paint1_linear_12:13)"/>
<defs>
<linearGradient id="paint0_linear_12:13" x1="-0.761246" y1="0.908834" x2="16.8726" y2="16.0993" gradientUnits="userSpaceOnUse">
<stop stop-color="#5A9FD4"/>
<stop offset="1" stop-color="#306998"/>
</linearGradient>
<linearGradient id="paint1_linear_12:13" x1="23.7158" y1="25.2586" x2="17.4226" y2="16.3435" gradientUnits="userSpaceOnUse">
<stop stop-color="#FFD43B"/>
<stop offset="1" stop-color="#FFE873"/>
</linearGradient>
</defs>
</svg>
