<svg width="45" height="34" viewBox="0 0 45 34" fill="none" xmlns="http://www.w3.org/2000/svg">
<path d="M44.1657 12.9487C44.0416 12.8417 42.9246 11.9648 40.5251 11.9648C39.9045 11.9648 39.2633 12.029 38.6427 12.1359C38.1877 8.86348 35.5606 7.28073 35.4572 7.19517L34.816 6.81018L34.4023 7.43045C33.8851 8.2646 33.4921 9.20569 33.2646 10.1682C32.8302 12.029 33.0991 13.7828 34.0092 15.28C32.9129 15.9217 31.134 16.0714 30.7617 16.0928H1.38861C0.623257 16.0928 0.00269978 16.7344 0.00269978 17.5258C-0.0386707 20.178 0.39572 22.8302 1.28519 25.3326C2.29876 28.0703 3.80879 30.1023 5.7532 31.3428C7.94584 32.733 11.5244 33.5244 15.558 33.5244C17.3783 33.5244 19.1986 33.3533 20.9982 33.0111C23.5011 32.5405 25.9006 31.6422 28.114 30.3375C29.9343 29.2467 31.5684 27.8565 32.9543 26.2309C35.2917 23.5146 36.6776 20.4774 37.6912 17.7825H38.1049C40.6492 17.7825 42.2213 16.7344 43.0901 15.8361C43.6693 15.28 44.1037 14.5956 44.4139 13.8256L44.6001 13.2695L44.1657 12.9487Z" fill="#0091E2"/>
<path d="M4.11911 15.2159H8.0493C8.23547 15.2159 8.40095 15.0662 8.40095 14.8523V11.2163C8.40095 11.0238 8.25615 10.8527 8.0493 10.8527H4.11911C3.93294 10.8527 3.76746 11.0024 3.76746 11.2163V14.8523C3.78814 15.0662 3.93294 15.2159 4.11911 15.2159ZM9.53864 15.2159H13.4688C13.655 15.2159 13.8205 15.0662 13.8205 14.8523V11.2163C13.8205 11.0238 13.6757 10.8527 13.4688 10.8527H9.53864C9.35247 10.8527 9.18699 11.0024 9.18699 11.2163V14.8523C9.20768 15.0662 9.35247 15.2159 9.53864 15.2159ZM15.0616 15.2159H18.9918C19.178 15.2159 19.3434 15.0662 19.3434 14.8523V11.2163C19.3434 11.0238 19.1987 10.8527 18.9918 10.8527H15.0616C14.8754 10.8527 14.71 11.0024 14.71 11.2163V14.8523C14.71 15.0662 14.8547 15.2159 15.0616 15.2159ZM20.5018 15.2159H24.432C24.6182 15.2159 24.7837 15.0662 24.7837 14.8523V11.2163C24.7837 11.0238 24.6389 10.8527 24.432 10.8527H20.5018C20.3157 10.8527 20.1502 11.0024 20.1502 11.2163V14.8523C20.1502 15.0662 20.3157 15.2159 20.5018 15.2159ZM9.53864 10.0185H13.4688C13.655 10.0185 13.8205 9.8474 13.8205 9.6549V6.01883C13.8205 5.82634 13.6757 5.65522 13.4688 5.65522H9.53864C9.35247 5.65522 9.18699 5.80495 9.18699 6.01883V9.6549C9.20768 9.8474 9.35247 10.0185 9.53864 10.0185ZM15.0616 10.0185H18.9918C19.178 10.0185 19.3434 9.8474 19.3434 9.6549V6.01883C19.3434 5.82634 19.1987 5.65522 18.9918 5.65522H15.0616C14.8754 5.65522 14.71 5.80495 14.71 6.01883V9.6549C14.71 9.8474 14.8547 10.0185 15.0616 10.0185ZM20.5018 10.0185H24.432C24.6182 10.0185 24.7837 9.8474 24.7837 9.6549V6.01883C24.7837 5.82634 24.6182 5.65522 24.432 5.65522H20.5018C20.3157 5.65522 20.1502 5.80495 20.1502 6.01883V9.6549C20.1502 9.8474 20.3157 10.0185 20.5018 10.0185ZM20.5018 4.79968H24.432C24.6182 4.79968 24.7837 4.64996 24.7837 4.43608V0.800011C24.7837 0.607513 24.6182 0.436401 24.432 0.436401H20.5018C20.3157 0.436401 20.1502 0.586124 20.1502 0.800011V4.43608C20.1502 4.62857 20.3157 4.79968 20.5018 4.79968ZM25.9834 15.2159H29.9136C30.0998 15.2159 30.2653 15.0662 30.2653 14.8523V11.2163C30.2653 11.0238 30.1205 10.8527 29.9136 10.8527H25.9834C25.7972 10.8527 25.6318 11.0024 25.6318 11.2163V14.8523C25.6525 15.0662 25.7972 15.2159 25.9834 15.2159Z" fill="#0091E2"/>
</svg>
