<svg width="2249" height="743" viewBox="0 0 2249 743" fill="none" xmlns="http://www.w3.org/2000/svg">
<path d="M406.502 57.5C435.169 60.8333 511.502 63.8 587.502 49C573.502 84.6667 532.402 212.2 480.002 437C414.269 719 289.001 782 125.002 710.5C-31.5 642.269 -33.9982 349 115.502 304" stroke="#162A3B" stroke-width="12" stroke-linecap="round"/>
<path d="M1404.39 93.0121L1369.39 178.012C1381.06 158.845 1405.29 108.812 1408.89 62.0121C1413.39 3.51211 1407.39 -8.98789 1369.39 20.0121C1331.39 49.0121 1294.39 114.512 1276.89 149.012C1259.39 183.512 1236.39 257.012 1231.89 280.012C1227.39 303.012 1215.89 366.012 1276.89 360.512C1325.69 356.112 1362.89 326.679 1375.39 312.512" stroke="#162A3B" stroke-width="12"/>
<path d="M1422.45 292.013C1410.78 302.846 1389.85 329.613 1399.45 350.013C1411.45 375.513 1442.45 371.013 1465.45 358.513C1488.45 346.013 1505.45 316.513 1504.45 287.013C1503.45 257.513 1457.95 243.013 1437.45 275.013C1416.95 307.013 1467.95 327.513 1516.95 320.013C1571.42 311.675 1598.38 303.983 1610.45 275.013C1620.45 251.013 1601.45 250.013 1572.95 264.513C1551.39 275.48 1521.95 298.513 1523.95 346.513C1525.93 394.1 1599.45 330.013 1610.45 309.013C1619.97 290.832 1531.45 508.513 1476.95 718.513" stroke="#162A3B" stroke-width="12"/>
<path d="M1596 448C1693.18 441.588 1897.23 429.777 1936 433.827" stroke="#162A3B" stroke-width="12"/>
<path d="M1663.2 267C1652.03 287.167 1630.9 332.3 1635.7 351.5C1641.7 375.5 1695.7 332.5 1736.7 267C1729.36 278 1716.4 306.8 1723.2 334C1731.7 368 1836.7 321 1835.7 259.5C1834.7 198 1711.98 410.081 1860.7 330C1932.2 291.5 1971.7 102.5 2002.7 5C1962.03 114 1883.9 358.9 1882.7 364.5" stroke="#162A3B" stroke-width="12"/>
<path d="M1999.7 206C2008.53 208.333 2037.9 212.3 2084.7 209.5C2143.2 206 2225.2 191.5 2248.2 195.5" stroke="#162A3B" stroke-width="12"/>
<path d="M583.434 255C569.266 277.419 544.33 328.412 557.931 353.025C574.933 383.793 660.443 286.483 675.444 268.595C690.446 250.707 624.465 335.457 663.5 353.025C702.5 370.578 732 294 777 263.5C743.5 273.5 707.469 319.943 736.5 349.448C762.549 375.922 798.959 328.543 816.5 284C834.041 239.457 781.456 307.948 807.458 343.724C831.058 376.194 897.968 299.362 925.971 268.595L899 349.448C917.502 328.698 983.498 274.698 1003.5 284C1022.5 304.034 992.478 389.517 1196 328.698" stroke="#162A3B" stroke-width="12"/>
</svg>
